<svg width="359" height="257" viewBox="0 0 359 257" fill="none" xmlns="http://www.w3.org/2000/svg">
<path d="M210.744 51.2384C211.358 51.4072 211.928 51.7084 212.413 52.1209C212.898 52.5334 213.287 53.0471 213.551 53.6259C213.816 54.2046 213.951 54.8343 213.945 55.4706C213.94 56.1068 213.795 56.7342 213.521 57.3086L220.18 64.7035L216.668 69.8415L207.411 59.2666C206.476 58.7425 205.765 57.8938 205.415 56.8815C205.064 55.8691 205.097 54.7634 205.508 53.7738C205.918 52.7842 206.678 51.9795 207.644 51.5122C208.609 51.0449 209.712 50.9475 210.744 51.2384Z" fill="#A0616A"/>
<path d="M273.084 69.3966C272.484 68.4206 271.697 67.5726 270.768 66.9012C269.839 66.2298 268.786 65.7483 267.67 65.4841C266.554 65.22 265.397 65.1785 264.265 65.3621C263.133 65.5456 262.049 65.9505 261.074 66.5537L239.174 80.1017L215.551 60.0439L209.673 65.51L235.77 99.3307L269.689 81.6687C268.897 82.0809 274.041 70.9516 273.084 69.3966Z" fill="#CCCCCC"/>
<path d="M229.7 114.445C229.702 125.248 227.574 135.946 223.436 145.928C219.297 155.91 213.231 164.979 205.583 172.618C197.935 180.258 188.855 186.317 178.862 190.45C168.869 194.584 158.159 196.71 147.343 196.708C101.859 196.708 64.9853 159.877 64.9853 114.445C64.9774 105.607 66.3957 96.8266 69.1855 88.4402C74.6628 72.0616 85.1561 57.8173 99.1815 47.7215C113.207 37.6258 130.055 32.1894 147.343 32.1812C162.252 32.176 176.884 36.2151 189.675 43.8674C202.466 51.5197 212.936 62.4978 219.968 75.6299C221.712 78.8699 223.233 82.2246 224.521 85.6707C224.699 86.1505 224.873 86.6303 225.042 87.1148V87.1194C225.797 89.249 226.462 91.4184 227.037 93.6273C228.811 100.424 229.706 107.42 229.7 114.445Z" fill="#3F3D56"/>
<path d="M138.332 58.9425C134.631 56.9433 130.522 55.8148 126.318 55.6429C122.114 55.4711 117.926 56.2606 114.073 57.9511C110.682 59.4255 107.11 62.0705 105.979 66.8468C110.555 64.1491 116.479 68.4114 117.656 75.249L117.381 75.3247C116.759 80.0607 118.148 85.2169 120.836 88.1536C121.189 85.1032 123.197 83.0272 125.172 81.7304C127.147 80.4335 129.332 79.4915 130.839 77.2624C132.626 74.6197 133.08 70.7576 133.79 67.2343C134.5 63.711 135.847 59.9242 138.332 58.9425Z" fill="white"/>
<path d="M112.716 99.244C111.449 101.145 109.756 102.338 108.237 103.823C106.722 105.313 105.281 107.324 104.979 109.906C104.787 111.561 105.084 113.242 105.043 114.915C105.002 116.588 104.444 118.471 103.304 118.887C101.506 119.536 100.134 116.199 98.2851 115.966C96.8164 115.783 95.4941 118.091 95.9196 120.093C96.3451 122.095 98.3446 122.982 99.493 121.674C100.532 123.416 99.7996 126.574 98.2394 127.108C98.0746 128.205 97.91 129.298 97.7498 130.394C93.8058 127.639 89.8206 124.837 86.4668 120.802C82.7369 116.351 80.4234 110.889 79.8233 105.117C79.3887 100.478 80.0338 95.1719 77.9017 91.6027C76.195 88.7463 73.2667 88.1155 70.6313 88.2938C70.1509 88.3258 69.6659 88.3806 69.1855 88.4401C70.7397 83.7774 72.7137 79.2649 75.0832 74.958C75.6194 74.7281 76.1176 74.4184 76.561 74.0394C79.0135 71.96 80.1024 67.7508 82.0927 64.8396C82.2208 64.6522 82.3535 64.4694 82.4908 64.2912C84.5269 61.6359 87.2538 60.2694 89.8892 58.9988C95.7229 56.1699 101.726 53.3044 107.884 53.6974L106.132 53.8665C104.087 59.5884 102.04 65.3103 99.9918 71.0322C99.6806 71.9096 99.3664 72.7886 99.0492 73.6692C97.8871 76.9231 96.6883 80.3874 96.8668 84.0298C96.972 86.1869 97.7223 88.4903 99.1499 89.2307C100.481 89.9162 101.936 89.0753 103.222 88.2435C103.766 87.8962 104.306 87.5488 104.851 87.1969C106.805 85.9401 108.969 84.6513 111.032 85.4922C112.922 86.2601 114.317 88.8239 114.583 91.5889C114.826 94.2767 114.169 96.9691 112.716 99.244Z" fill="white"/>
<path d="M124.336 138.309C118.63 134.8 112.924 131.29 107.218 127.781L107.314 127.532C103.767 128.882 102.294 135.181 102.88 140.332C103.466 145.483 105.455 150.088 106.459 155.108C107.813 161.976 107.302 169.082 104.979 175.687C112.482 167.277 119.122 158.138 124.799 148.406C125.592 147.179 126.197 145.84 126.592 144.435C126.955 142.939 126.899 141.141 126.173 139.942C125.706 139.253 125.074 138.692 124.336 138.309Z" fill="white"/>
<path d="M101.816 74.4653C101.21 75.8261 100.977 77.6405 101.527 79.0485C102.088 80.4864 103.275 81.1362 104.368 81.6773L107.521 83.2383C108.57 83.7576 109.701 84.2821 110.77 83.8548C112.06 83.3395 112.954 81.32 112.722 79.4451C112.476 77.45 111.217 76.0777 110.053 74.909C108.423 73.2736 106.794 71.6381 105.164 70.0027L104.246 71.1262C103.253 72.0939 102.431 73.223 101.816 74.4653Z" fill="white"/>
<path d="M212.799 95.7934C214.217 96.1271 215.635 96.4607 217.054 96.7943C216.807 101.579 214.432 106.008 211.248 107.612C209.921 108.279 208.443 108.526 207.345 109.774C206.352 110.907 205.849 112.671 205.386 114.358C204.577 117.301 203.767 120.244 202.957 123.187C202.088 126.359 200.971 129.882 198.711 131.025C196.771 132.008 194.552 130.806 193.06 128.79C191.569 126.775 190.658 124.065 189.775 121.423C189.83 124.302 188.49 127.127 186.591 128.128C184.687 129.128 182.372 128.223 181.1 125.989C180.185 124.385 179.805 122.268 178.909 120.642C178.012 119.015 176.131 118.082 175.152 119.609C174.507 120.623 174.589 122.177 174.269 123.466C173.77 125.468 172.261 126.724 170.764 126.834C169.273 126.944 167.818 126.085 166.569 124.919C163.993 122.506 162.094 118.676 161.357 114.422C161.032 112.525 160.941 110.459 161.504 108.681C162.067 106.904 163.425 105.533 164.775 105.871C165.663 103.997 163.91 101.511 162.332 101.73C160.749 101.949 159.509 103.645 158.209 104.948C156.915 106.25 155.103 107.196 153.799 105.903C153.808 107.105 152.829 107.9 151.982 107.799C151.14 107.703 150.39 107.027 149.617 106.547C146.629 104.687 142.836 105.921 140.713 109.44C142.04 103.8 143.984 97.329 148.061 96.0036C149.727 95.4598 151.543 95.9077 153.117 94.9662C155.903 93.2981 156.466 86.9958 154.06 84.3954C154.366 86.8541 154.307 89.7242 153.007 91.406C151.708 93.0879 148.981 91.991 149.146 89.5048C148.77 91.2186 146.904 91.4792 146.043 90.1629C145.179 88.8467 145.252 86.6942 145.865 85.122C146.478 83.5498 147.521 82.421 148.532 81.3379C150.706 79.0117 152.911 76.658 155.428 75.1955C157.949 73.7331 160.859 73.2395 163.384 74.6928C164.716 75.4606 165.887 76.7403 167.246 77.4167C168.605 78.0976 170.33 78.0108 171.231 76.4203C172.242 74.6471 171.766 72.0147 172.142 69.7981C172.814 65.8815 176.735 64.0488 178.909 66.6355C177.284 66.2197 175.605 68.1391 175.404 70.4654C175.198 72.7916 176.374 75.1407 177.948 75.8445C180.592 77.0145 183.182 74.0713 185.181 71.3474C187.268 68.4956 189.357 65.6454 191.45 62.7966C191.784 62.3116 192.159 61.856 192.571 61.4347C193.226 60.7967 194.1 60.4313 195.015 60.4126C195.93 60.394 196.818 60.7234 197.498 61.3342C199.612 63.0571 200.605 66.5899 202.339 69.0212C204.856 72.554 208.621 73.4132 212.126 74.0987C214.739 74.606 217.353 75.1163 219.968 75.6297C221.712 78.8697 223.233 82.2244 224.521 85.6704C220.092 87.5488 216.006 91.0633 212.799 95.7934Z" fill="white"/>
<path d="M221.245 150.782C219.285 154.758 217.005 158.568 214.427 162.176C212.78 161.472 211.01 162.728 209.468 163.908C207.857 165.142 205.922 166.344 204.27 165.219C202.582 164.068 202.037 160.846 202.573 158.291C203.108 155.741 204.444 153.711 205.739 151.783C207.111 149.735 208.58 147.61 210.488 146.815C212.401 146.02 214.858 147.144 215.416 149.859L216.77 149.813C216.011 148.771 216.409 146.614 217.429 146.235C218.605 145.791 219.625 147.405 220.321 148.831C220.632 149.475 220.947 150.124 221.245 150.782Z" fill="white"/>
<path d="M169.375 131.478C166.464 131.661 164.158 128.081 162.626 124.56C161.094 121.038 159.696 117.011 157.069 115.219C155.568 114.195 153.857 114.054 152.229 113.558C150.601 113.062 148.898 112.035 148.119 109.943L146.273 109.198C143.834 110.568 141.363 111.963 139.262 114.192C136.905 116.692 135.437 119.898 135.084 123.314C134.731 127.006 136.034 131.123 138.468 132.51C140.391 133.606 142.63 132.915 144.578 133.918C147.012 135.172 148.457 138.813 149.004 142.408C149.551 146.003 149.412 149.739 149.804 153.375C150.195 157.011 151.274 160.794 153.506 162.658C156.299 164.989 160.397 163.052 161.651 158.807C162.265 156.725 162.244 154.376 162.704 152.215C163.513 148.409 165.698 145.585 167.431 142.463C169.164 139.341 170.528 135.101 169.375 131.478Z" fill="white"/>
<path d="M140.61 94.0794C140.881 94.3291 141.135 94.5977 141.368 94.8832C141.609 95.299 141.733 95.7727 141.725 96.2533C141.716 96.7339 141.577 97.2031 141.321 97.6104C141.672 97.5904 142.015 97.4981 142.328 97.3391C142.641 97.1802 142.918 96.9581 143.141 96.6869C143.672 96.0825 144.139 95.4249 144.535 94.7246C144.832 94.241 145.148 93.5871 144.946 93.0128C144.809 92.6207 144.484 92.4535 144.256 92.1587C143.894 91.6914 143.805 90.9492 143.618 90.3078C143.214 88.9225 142.246 87.9039 141.196 87.7583L141.342 87.7862C140.903 87.9363 140.597 88.6323 140.694 89.2585C140.782 89.8289 141.149 90.3023 141.112 90.884C141.06 91.7204 140.223 92.1129 140.171 92.9494C140.163 93.369 140.321 93.775 140.61 94.0794Z" fill="white"/>
<path d="M135.622 79.8661C135.627 79.865 135.631 79.8647 135.635 79.8636C135.725 79.7821 135.808 79.6938 135.884 79.5994L135.622 79.8661Z" fill="#E6E6E6"/>
<path d="M136.495 83.792C137.139 83.3786 137.499 82.2353 137.286 81.2783C137.074 80.3273 136.326 79.6879 135.635 79.8635C135.435 80.0663 135.187 80.2149 134.913 80.2954C134.639 80.3758 134.35 80.3855 134.071 80.3234C133.645 80.2137 133.176 79.931 132.806 80.2522C132.594 80.4921 132.446 80.7812 132.375 81.093C132.238 81.5131 132.101 81.9332 131.964 82.3533C131.899 82.5037 131.882 82.6705 131.915 82.8309C131.941 82.8952 131.984 82.9516 132.038 82.9948C132.093 83.038 132.157 83.0665 132.226 83.0776C133.048 83.3197 133.87 83.5617 134.692 83.8038C135.291 83.9802 135.938 84.1502 136.495 83.792Z" fill="white"/>
<path d="M198.557 137.994C198.177 137.372 197.797 136.751 197.417 136.13C197.044 135.41 196.534 134.77 195.915 134.245C195.779 134.132 195.621 134.046 195.452 133.994C195.282 133.942 195.104 133.924 194.927 133.942C194.751 133.959 194.58 134.012 194.424 134.097C194.268 134.182 194.13 134.297 194.02 134.435L194.066 134.79C194.932 135.876 195.849 137.081 196.068 138.692C196.155 139.327 196.125 139.985 196.201 140.623C196.277 141.26 196.493 141.922 196.905 142.197C197.503 142.596 198.206 142.008 198.632 141.289C199.013 140.699 199.183 139.998 199.117 139.299C199.022 138.831 198.831 138.386 198.557 137.994Z" fill="white"/>
<path d="M215.47 114.26C215.58 113.54 215.69 112.82 215.8 112.1C215.978 111.31 216 110.492 215.865 109.693C215.834 109.518 215.769 109.351 215.673 109.202C215.577 109.053 215.452 108.925 215.305 108.825C215.159 108.725 214.994 108.655 214.82 108.62C214.646 108.584 214.467 108.584 214.293 108.619L214.099 108.92C214.062 110.308 213.986 111.82 213.115 113.194C212.772 113.735 212.325 114.219 211.972 114.756C211.619 115.292 211.358 115.937 211.496 116.413C211.696 117.103 212.613 117.105 213.402 116.829C214.074 116.623 214.657 116.196 215.056 115.619C215.286 115.199 215.427 114.737 215.47 114.26Z" fill="#E6E6E6"/>
<path d="M204.518 138.803C204.704 138.269 204.436 137.657 204.379 137.068C204.352 136.306 204.554 135.554 204.96 134.908C205.362 134.299 205.667 133.631 205.864 132.928C205.947 132.608 205.932 132.27 205.82 131.959C205.695 131.676 205.39 131.548 205.215 131.771L205.589 132.012C205.084 131.922 204.565 131.947 204.071 132.085C203.79 132.193 203.538 132.367 203.338 132.592C203.138 132.818 202.995 133.088 202.921 133.38C202.859 133.836 202.759 134.286 202.62 134.724C202.396 135.182 201.965 135.335 201.693 135.737C201.508 136.093 201.415 136.49 201.421 136.891C201.428 137.293 201.535 137.686 201.731 138.036C202.072 138.609 202.614 139.034 203.251 139.23C203.708 139.394 204.31 139.402 204.518 138.803Z" fill="white"/>
<path d="M215.135 142.002C215.3 142.431 215.521 142.837 215.792 143.208C216.301 143.719 216.991 143.405 217.608 143.281C218.167 143.193 218.74 143.257 219.266 143.468C219.792 143.679 220.251 144.027 220.594 144.477C220.355 143.286 219.833 142.17 219.072 141.222C218.312 140.274 217.334 139.522 216.223 139.03C214.769 138.438 213.238 138.381 211.727 138.327L211.466 138.394C212.131 140.329 214.22 140.285 215.135 142.002Z" fill="white"/>
<path d="M170.172 145.959L170.176 145.967C170.201 145.918 170.226 145.87 170.251 145.821L170.172 145.959Z" fill="#E6E6E6"/>
<path d="M168.561 149.072C168.21 149.709 167.908 150.372 167.658 151.055C167.326 152.161 167.107 153.297 167.003 154.447C166.921 155.101 166.896 155.936 167.306 156.254C167.424 156.332 167.566 156.365 167.706 156.346C167.846 156.327 167.974 156.258 168.067 156.151C168.295 155.91 168.481 155.634 168.618 155.332C169.424 153.946 170.05 152.462 170.48 150.918C170.873 149.291 170.869 147.376 170.176 145.967C169.637 147.002 169.099 148.037 168.561 149.072Z" fill="white"/>
<path d="M153.025 66.1163C153.28 66.3661 153.604 66.5356 153.955 66.6041C154.306 66.6725 154.67 66.6369 155.001 66.5015C155.686 66.2021 156.315 65.7872 156.86 65.2748C157.311 64.9414 157.694 64.5245 157.987 64.0467C158.149 63.7611 158.252 63.4465 158.292 63.1209C158.331 62.7953 158.306 62.4651 158.218 62.1492C157.963 61.4054 157.317 61.1561 156.747 60.9872C155.834 60.7169 154.922 60.4467 154.009 60.1764L154.67 59.5821C153.99 59.2181 153.239 59.8938 152.815 60.7303C152.542 61.2765 152.353 61.8599 152.251 62.4616C152.024 63.7746 152.246 65.3381 153.025 66.1163Z" fill="#E6E6E6"/>
<path d="M169.134 60.7141C169.392 60.9974 169.747 61.1722 170.129 61.2032C170.51 61.2342 170.889 61.119 171.189 60.8811C171.447 60.6876 171.661 60.442 171.818 60.1604C171.974 59.8787 172.07 59.5672 172.098 59.2463C172.162 58.5294 171.807 57.7325 171.3 57.6706L171.416 56.9994C170.44 56.8232 169.239 56.788 168.715 57.9723C168.539 58.426 168.485 58.918 168.558 59.3992C168.632 59.8803 168.83 60.3338 169.134 60.7141Z" fill="#E6E6E6"/>
<path d="M166.982 25.0186C161.258 24.3737 155.512 26.0265 151.008 29.6134C146.504 33.2003 143.611 38.4276 142.965 44.1452C141.62 56.0516 147.9 81.9066 159.349 92.6095C164.74 72.1036 183.631 59.9407 186.131 49.0088C188.802 37.3277 178.902 26.3617 166.982 25.0186Z" fill="url(#paint0_linear_19_2165)"/>
<path d="M163.024 51.4879C166.936 51.4879 170.107 48.3201 170.107 44.4124C170.107 40.5047 166.936 37.3369 163.024 37.3369C159.111 37.3369 155.94 40.5047 155.94 44.4124C155.94 48.3201 159.111 51.4879 163.024 51.4879Z" fill="white"/>
<path d="M155.575 102.812C158.138 102.812 160.215 100.737 160.215 98.1773C160.215 95.6178 158.138 93.543 155.575 93.543C153.013 93.543 150.936 95.6178 150.936 98.1773C150.936 100.737 153.013 102.812 155.575 102.812Z" fill="url(#paint1_linear_19_2165)"/>
<path opacity="0.2" d="M168.885 39.3431C169.682 39.8216 170.377 40.4524 170.93 41.1993C171.484 41.9462 171.884 42.7947 172.109 43.6962C172.334 44.5978 172.379 45.5348 172.242 46.4537C172.104 47.3727 171.787 48.2556 171.308 49.052C170.829 49.8484 170.197 50.5428 169.449 51.0954C168.702 51.6481 167.852 52.0482 166.95 52.273C165.127 52.7269 163.198 52.4389 161.588 51.4724C163.23 51.8373 164.948 51.6065 166.435 50.8216C167.922 50.0366 169.081 48.7486 169.704 47.1881C170.327 45.6277 170.374 43.8966 169.836 42.3047C169.299 40.7129 168.211 39.3642 166.769 38.5C167.515 38.6652 168.229 38.9499 168.885 39.3431Z" fill="#1E1E1E"/>
<path opacity="0.2" d="M186.159 49.0318C183.659 59.9636 164.768 72.1266 159.377 92.6325C158.3 91.6162 157.3 90.5218 156.385 89.3583C162.443 70.0833 180.158 58.3712 182.573 47.809C184.735 38.3557 178.663 29.3716 169.951 25.5764C180.497 28.2245 188.606 38.3272 186.159 49.0318Z" fill="#1E1E1E"/>
<path d="M100.602 52.6262C96.3035 52.1418 91.9882 53.383 88.6058 56.0767C85.2233 58.7703 83.0506 62.6958 82.5657 66.9896C81.556 75.9308 86.2719 95.3471 94.87 103.385C98.9184 87.9854 113.105 78.8515 114.982 70.642C116.988 61.8699 109.554 53.6348 100.602 52.6262Z" fill="url(#paint2_linear_19_2165)"/>
<path d="M97.6291 72.5036C100.567 72.5036 102.949 70.1247 102.949 67.1902C102.949 64.2556 100.567 61.8767 97.6291 61.8767C94.6912 61.8767 92.3096 64.2556 92.3096 67.1902C92.3096 70.1247 94.6912 72.5036 97.6291 72.5036Z" fill="white"/>
<path d="M92.0359 111.046C93.9601 111.046 95.52 109.488 95.52 107.566C95.52 105.644 93.9601 104.085 92.0359 104.085C90.1116 104.085 88.5517 105.644 88.5517 107.566C88.5517 109.488 90.1116 111.046 92.0359 111.046Z" fill="url(#paint3_linear_19_2165)"/>
<path opacity="0.2" d="M102.03 63.3834C102.629 63.7428 103.151 64.2164 103.567 64.7773C103.982 65.3382 104.283 65.9754 104.452 66.6525C104.621 67.3295 104.655 68.0331 104.552 68.7232C104.448 69.4133 104.21 70.0763 103.85 70.6744C103.49 71.2725 103.016 71.794 102.455 72.209C101.893 72.624 101.255 72.9245 100.577 73.0933C99.8996 73.2621 99.1952 73.2959 98.5043 73.1927C97.8134 73.0896 97.1496 72.8515 96.5508 72.4921C97.7838 72.7661 99.0741 72.5928 100.191 72.0033C101.308 71.4138 102.178 70.4466 102.646 69.2747C103.114 68.1029 103.149 66.8029 102.745 65.6075C102.341 64.4121 101.525 63.3992 100.442 62.7502C101.002 62.8743 101.539 63.0881 102.03 63.3834Z" fill="#1E1E1E"/>
<path opacity="0.2" d="M115.003 70.6591C113.126 78.8686 98.9392 88.0025 94.8908 103.402C94.0822 102.639 93.3312 101.817 92.6439 100.943C97.1932 86.4681 110.497 77.6727 112.31 69.7408C113.934 62.6417 109.374 55.895 102.831 53.0449C110.751 55.0336 116.841 62.6203 115.003 70.6591Z" fill="#1E1E1E"/>
<path d="M267.145 245.109H261.305L258.526 222.606L267.146 222.606L267.145 245.109Z" fill="#A0616A"/>
<path d="M270.287 256.186H266.143L265.403 252.278L263.508 256.186H252.516C251.989 256.186 251.476 256.018 251.052 255.706C250.627 255.394 250.314 254.955 250.157 254.452C250 253.95 250.008 253.41 250.18 252.913C250.352 252.415 250.679 251.986 251.112 251.687L259.89 245.631V241.68L269.123 242.231L270.287 256.186Z" fill="#212121"/>
<path d="M244.523 245.109H238.682L235.904 222.606L244.524 222.606L244.523 245.109Z" fill="#A0616A"/>
<path d="M247.665 256.186H243.52L242.781 252.278L240.886 256.186H229.894C229.367 256.186 228.854 256.018 228.43 255.706C228.005 255.394 227.692 254.955 227.535 254.452C227.378 253.95 227.386 253.41 227.558 252.913C227.73 252.415 228.056 251.986 228.49 251.687L237.268 245.631V241.68L246.501 242.231L247.665 256.186Z" fill="#212121"/>
<path d="M222.334 185.697C223.451 187.371 235.611 233.407 235.611 233.407L246.392 234.635L245.112 223.052L243.156 202.555L240.127 188.873C240.127 188.873 250.824 164.557 251.5 162.62L251.981 161.23L255.323 191.524C255.72 192.606 255.893 193.757 255.831 194.907C255.731 196.8 257.631 225.269 257.631 225.269L258.544 235.478L267.782 236.76L271.529 219.095C274.659 213.356 272.865 192.965 271.585 191.067C270.306 189.169 270.814 175.95 270.814 175.95C272.448 175.376 282.193 142.183 277.319 142.379C277.632 140.61 277.878 139.03 277.878 139.03L269.417 132.214L248.242 126.716L242.9 124.154C242.9 124.154 233.358 141.776 233.453 142.653C233.585 143.763 233.33 144.884 232.733 145.829L223.099 178.032C223.099 178.032 221.205 184.005 222.334 185.697Z" fill="#212121"/>
<path d="M275.532 70.4609L272.163 63.3169L260.698 63.757L256.958 71.1893C256.958 71.1893 246.27 83.9401 245.925 88.0861C245.49 93.3007 249.105 118.857 245.49 117.201C245.49 117.201 236.965 127.195 242.009 127.195C247.053 127.195 269.87 141.503 271.368 143.111C272.865 144.72 279.548 145.764 278.988 142.405C278.428 139.046 275.532 120.88 275.532 120.88L283.371 92.3157C285.627 86.1487 286.329 79.2312 281.229 75.0887L275.532 70.4609Z" fill="#CCCCCC"/>
<path d="M233.063 49.4342C231.53 48.8262 229.891 48.5258 228.241 48.5502C226.592 48.5746 224.963 48.9234 223.448 49.5766C221.933 50.2298 220.562 51.1746 219.413 52.3572C218.263 53.5397 217.358 54.9367 216.75 56.4685C214.19 62.9107 213.765 78.2951 218.53 86.0056C224.655 75.3768 237.049 71.4521 240.106 65.7291C243.372 59.6138 239.513 51.9914 233.063 49.4342Z" fill="url(#paint4_linear_19_2165)"/>
<path d="M227.906 63.7521C230.169 63.7521 232.003 61.9196 232.003 59.6591C232.003 57.3986 230.169 55.5662 227.906 55.5662C225.643 55.5662 223.808 57.3986 223.808 59.6591C223.808 61.9196 225.643 63.7521 227.906 63.7521Z" fill="white"/>
<path d="M215.577 91.2217C217.059 91.2217 218.261 90.0215 218.261 88.5409C218.261 87.0603 217.059 85.8601 215.577 85.8601C214.095 85.8601 212.893 87.0603 212.893 88.5409C212.893 90.0215 214.095 91.2217 215.577 91.2217Z" fill="url(#paint5_linear_19_2165)"/>
<path opacity="0.2" d="M231.948 57.7182C232.698 58.5021 233.107 59.5516 233.083 60.6362C233.06 61.7207 232.606 62.7515 231.822 63.5021C231.038 64.2527 229.988 64.6617 228.902 64.6392C227.816 64.6168 226.784 64.1646 226.031 63.3822C226.892 63.8348 227.886 63.9666 228.836 63.7539C229.785 63.5412 230.628 62.998 231.213 62.2215C231.798 61.445 232.087 60.4858 232.029 59.5157C231.971 58.5456 231.569 57.6279 230.895 56.9268C231.286 57.1321 231.642 57.3994 231.948 57.7182Z" fill="#1E1E1E"/>
<path opacity="0.2" d="M240.118 65.746C237.061 71.469 224.667 75.3937 218.542 86.0225C218.095 85.2919 217.703 84.5294 217.369 83.7411C223.68 73.9006 235.349 70.0492 238.302 64.5197C240.945 59.5707 238.922 53.6351 234.635 50.1956C240.12 53.273 243.111 60.1419 240.118 65.746Z" fill="#1E1E1E"/>
<path d="M214.367 87.6179C214.991 87.4895 215.636 87.4992 216.255 87.6465C216.875 87.7938 217.455 88.0749 217.954 88.4703C218.453 88.8656 218.86 89.3654 219.144 89.9346C219.429 90.5037 219.586 91.1283 219.603 91.7644L228.899 95.3287L228.108 101.5L215.051 96.2821C213.979 96.2399 212.961 95.8064 212.187 95.0639C211.414 94.3214 210.941 93.3214 210.856 92.2534C210.772 91.1855 211.083 90.1237 211.73 89.2693C212.377 88.415 213.315 87.8274 214.367 87.6179Z" fill="#A0616A"/>
<path d="M279.322 74.901C278.343 74.3041 277.256 73.9062 276.123 73.7299C274.99 73.5536 273.833 73.6025 272.719 73.8738C271.605 74.1451 270.555 74.6334 269.63 75.3107C268.706 75.988 267.924 76.841 267.33 77.8208L253.986 99.8303L223.818 92.6873L221.069 100.224L259.703 118.504L279.27 87.3741C282.2 83.2619 283.635 77.5309 279.322 74.901Z" fill="#CCCCCC"/>
<path d="M279.82 47.9275C279.821 50.0488 279.301 52.1379 278.304 54.0113C277.308 55.8848 275.867 57.4853 274.107 58.6725C272.347 59.8596 270.322 60.597 268.21 60.82C266.098 61.043 263.963 60.7447 261.994 59.9513C260.024 59.158 258.28 57.8938 256.913 56.2698C255.547 54.6458 254.601 52.7116 254.157 50.637C253.714 48.5624 253.788 46.4108 254.371 44.3711C254.955 42.3315 256.031 40.4661 257.504 38.9388L257.567 38.8766C257.671 38.7677 257.774 38.6589 257.883 38.5552C257.884 38.5552 257.885 38.5551 257.885 38.5548C257.886 38.5546 257.887 38.5542 257.887 38.5537C257.888 38.5532 257.888 38.5526 257.888 38.552C257.888 38.5514 257.889 38.5507 257.889 38.55C258.023 38.4256 258.158 38.3012 258.299 38.182C260.173 36.5402 262.482 35.4729 264.948 35.1079C267.415 34.7429 269.934 35.0957 272.205 36.124C274.476 37.1523 276.402 38.8125 277.752 40.9059C279.103 42.9992 279.821 45.4371 279.82 47.9275Z" fill="#212121"/>
<path d="M263.65 61.7932C269.658 61.7932 274.529 56.9279 274.529 50.9262C274.529 44.9244 269.658 40.0591 263.65 40.0591C257.641 40.0591 252.77 44.9244 252.77 50.9262C252.77 56.9279 257.641 61.7932 263.65 61.7932Z" fill="#9E616A"/>
<path d="M275.203 54.0251L273.4 53.7071C272.393 53.5242 271.465 53.0385 270.742 52.315C270.019 51.5914 269.534 50.6645 269.352 49.6582L267.593 52.6026L267.516 52.6281C263.325 54.0179 258.965 53.6022 254.189 51.3591C252.824 50.7121 251.499 49.9825 250.222 49.1744L250.128 49.1156L250.12 49.0051C249.877 45.4699 250.671 42.5166 252.357 40.6891C253.005 40.0015 253.79 39.4583 254.662 39.0951C255.535 38.732 256.474 38.557 257.418 38.5817C257.486 38.5642 257.547 38.5301 257.598 38.4826C257.622 38.4648 257.647 38.4472 257.671 38.4304V38.4122L257.796 38.3534C258.064 38.2274 258.338 38.1066 258.611 37.9963C260.764 37.1639 263.108 36.9551 265.375 37.3938C267.641 37.8326 269.737 38.9012 271.423 40.4767C274.774 43.6724 276.311 49.0352 275.248 53.8221L275.203 54.0251Z" fill="#212121"/>
<path d="M298.15 63.2838C294.447 61.3751 299.209 54.4476 298.252 50.3972C297.295 46.3469 290.405 45.0442 289.966 40.9057C289.527 36.7673 288.495 32.499 285.761 29.3587C284.014 27.3521 281.44 25.8707 278.789 26.1221C277.893 26.2071 277.025 26.4842 276.245 26.9345C275.465 27.3847 274.791 27.9976 274.27 28.7313C273.749 29.465 273.392 30.3024 273.224 31.1863C273.055 32.0702 273.08 32.98 273.295 33.8536C272.541 32.7856 270.588 33.017 270.105 34.2319C269.675 35.3118 270.624 36.62 271.741 36.7155C273.203 38.5189 274.878 40.4328 277.168 40.7966C277.533 40.8803 277.912 40.8801 278.277 40.796C278.642 40.7118 278.983 40.546 279.274 40.311C279.813 39.7942 279.855 38.7608 279.215 38.3746C282.094 39.5166 283.781 42.6251 284.208 45.6892C284.635 48.7532 284.045 51.8533 283.655 54.9223C283.266 57.9913 283.098 61.2198 284.303 64.0698C285.726 67.437 289.003 69.8504 292.58 70.6244C296.156 71.3983 299.965 70.6419 303.202 68.9377C306.439 67.2333 309.139 64.6316 311.344 61.7147C307.545 64.4089 302.29 65.4183 298.15 63.2838Z" fill="#212121"/>
<path d="M274.74 53.7231C274.74 53.7231 271.517 41.7071 257.702 38.9337C257.686 38.9286 257.634 38.9078 257.567 38.8768C257.525 38.8508 257.473 38.8249 257.421 38.799C257.577 38.7108 257.728 38.6331 257.883 38.5553L257.885 38.5549L257.887 38.5538L257.888 38.5521L257.889 38.5501C258.023 38.4257 258.158 38.3013 258.299 38.1821L258.693 38.1976C258.693 38.1976 272.555 36.0049 274.74 53.7231Z" fill="#FD6584"/>
<path opacity="0.2" d="M267.524 92.2793L259.721 101.309L246.829 97.506L260.884 103.976L267.524 92.2793Z" fill="#212121"/>
<path d="M314.357 256.866L194.394 257C194.256 256.999 194.125 256.945 194.028 256.848C193.931 256.751 193.877 256.619 193.877 256.482C193.877 256.346 193.931 256.214 194.028 256.117C194.125 256.02 194.256 255.965 194.394 255.965L314.357 255.832C314.495 255.832 314.626 255.886 314.723 255.983C314.821 256.08 314.875 256.212 314.875 256.349C314.875 256.486 314.821 256.618 314.723 256.715C314.626 256.812 314.495 256.866 314.357 256.866Z" fill="#CACACA"/>
<path d="M319.623 176.458C314.006 176.458 307.849 176.246 301.152 175.822C266.517 173.625 221.653 165.987 174.826 154.315C127.999 142.643 84.8019 128.332 53.1935 114.017C37.7962 107.044 25.9788 100.444 18.07 94.3987C9.69669 87.9991 6.03408 82.4208 7.18351 77.8195C9.42312 68.8552 29.2538 66.894 45.4953 66.8274L45.5008 68.131C23.1969 68.2225 10.0387 71.7755 8.44999 78.1352C6.42623 86.2352 22.9312 98.8808 53.7325 112.83C85.2713 127.113 128.389 141.397 175.142 153.05C221.895 164.703 266.676 172.328 301.235 174.521C334.985 176.662 355.504 173.244 357.528 165.144C359.208 158.419 348.132 148.511 326.34 137.247L326.939 136.089C342.774 144.274 361.154 156.014 358.794 165.46C357.645 170.061 351.788 173.266 341.386 174.986C335.456 175.966 328.173 176.458 319.623 176.458Z" fill="#FF4627"/>
<defs>
<linearGradient id="paint0_linear_19_2165" x1="164.678" y1="24.8818" x2="164.678" y2="92.6095" gradientUnits="userSpaceOnUse">
<stop stop-color="#5B4DE5"/>
<stop offset="1" stop-color="#3E31BA"/>
</linearGradient>
<linearGradient id="paint1_linear_19_2165" x1="155.576" y1="93.543" x2="155.576" y2="102.812" gradientUnits="userSpaceOnUse">
<stop stop-color="#5B4DE5"/>
<stop offset="1" stop-color="#3E31BA"/>
</linearGradient>
<linearGradient id="paint2_linear_19_2165" x1="98.8713" y1="52.5234" x2="98.8713" y2="103.385" gradientUnits="userSpaceOnUse">
<stop stop-color="#5B4DE5"/>
<stop offset="1" stop-color="#3E31BA"/>
</linearGradient>
<linearGradient id="paint3_linear_19_2165" x1="92.0359" y1="104.085" x2="92.0359" y2="111.046" gradientUnits="userSpaceOnUse">
<stop stop-color="#5B4DE5"/>
<stop offset="1" stop-color="#3E31BA"/>
</linearGradient>
<linearGradient id="paint4_linear_19_2165" x1="228.08" y1="48.5488" x2="228.08" y2="86.0056" gradientUnits="userSpaceOnUse">
<stop stop-color="#5B4DE5"/>
<stop offset="1" stop-color="#3E31BA"/>
</linearGradient>
<linearGradient id="paint5_linear_19_2165" x1="215.577" y1="85.8601" x2="215.577" y2="91.2217" gradientUnits="userSpaceOnUse">
<stop stop-color="#5B4DE5"/>
<stop offset="1" stop-color="#3E31BA"/>
</linearGradient>
</defs>
</svg>
