<svg width="40" height="40" viewBox="0 0 40 40" fill="none" xmlns="http://www.w3.org/2000/svg">
<g clip-path="url(#clip0_582_131)">
<path d="M19.9999 0.546509C22.5796 0.546509 25.0537 1.57129 26.8778 3.39542C28.7019 5.21954 29.7267 7.69358 29.7267 10.2733C29.7267 12.853 28.7019 15.327 26.8778 17.1512C25.0537 18.9753 22.5796 20.0001 19.9999 20.0001C17.4202 20.0001 14.9462 18.9753 13.1221 17.1512C11.2979 15.327 10.2732 12.853 10.2732 10.2733C10.2732 7.69358 11.2979 5.21954 13.1221 3.39542C14.9462 1.57129 17.4202 0.546509 19.9999 0.546509ZM19.9999 24.8634C30.748 24.8634 39.4535 29.2162 39.4535 34.5902V39.4536H0.546387V34.5902C0.546387 29.2162 9.25185 24.8634 19.9999 24.8634Z" fill="#8C8C8C"/>
</g>
<defs>
<clipPath id="clip0_582_131">
<rect width="40" height="40" fill="white"/>
</clipPath>
</defs>
</svg>
